<svg width="30" height="30" viewBox="0 0 30 30" fill="none" xmlns="http://www.w3.org/2000/svg">
<mask id="mask0_265_985" style="mask-type:alpha" maskUnits="userSpaceOnUse" x="0" y="0" width="30" height="30">
<rect width="30" height="30" fill="#D9D9D9"/>
</mask>
<g mask="url(#mask0_265_985)">
<path fill-rule="evenodd" clip-rule="evenodd" d="M7.27719 20.3125C7.0924 20.3542 6.91667 20.4063 6.75 20.4688V6.375C6.75 6.08333 6.85781 5.82292 7.07344 5.59375C7.28906 5.36458 7.55625 5.25 7.875 5.25H9V20.25H7.875C7.66104 20.25 7.46177 20.2708 7.27719 20.3125ZM5.48438 26.0156C6.14062 26.6719 6.9375 27 7.875 27H23.25C23.8687 27 24.3984 26.7797 24.8391 26.3391C25.2797 25.8984 25.5 25.3687 25.5 24.75V16.125C25.5 15.8062 25.3906 15.5391 25.1719 15.3234C24.9531 15.1078 24.6853 15 24.3684 15C24.0516 15 23.7859 15.1078 23.5716 15.3234C23.3572 15.5391 23.25 15.8062 23.25 16.125V24.75H7.875C7.55625 24.75 7.28906 24.6406 7.07344 24.4219C6.85781 24.2031 6.75 23.9353 6.75 23.6184C6.75 23.3016 6.85781 23.0359 7.07344 22.8216C7.28906 22.6072 7.55625 22.5 7.875 22.5H21V17.375C21 17.0563 20.8906 16.7891 20.6719 16.5734C20.4531 16.3578 20.1853 16.25 19.8684 16.25C19.5516 16.25 19.2859 16.3578 19.0716 16.5734C18.8572 16.7891 18.75 17.0563 18.75 17.375V20.25H11.25V5.25H15.125C15.4438 5.25 15.7109 5.14063 15.9266 4.92188C16.1422 4.70312 16.25 4.43531 16.25 4.11844C16.25 3.80156 16.1422 3.53594 15.9266 3.32156C15.7109 3.10719 15.4438 3 15.125 3H7.875C6.9375 3 6.14062 3.32812 5.48438 3.98438C4.82812 4.64062 4.5 5.4375 4.5 6.375V23.625C4.5 24.5625 4.82812 25.3594 5.48438 26.0156Z" fill="#855074"/>
<path d="M21.75 15C21.75 13.1181 22.4046 11.5227 23.7138 10.2138C25.0227 8.90458 26.6181 8.25 28.5 8.25C26.6181 8.25 25.0227 7.59542 23.7138 6.28625C22.4046 4.97729 21.75 3.38188 21.75 1.5C21.75 3.38188 21.0954 4.97729 19.7862 6.28625C18.4773 7.59542 16.8819 8.25 15 8.25C16.8819 8.25 18.4773 8.90458 19.7862 10.2138C21.0954 11.5227 21.75 13.1181 21.75 15Z" fill="#855074"/>
</g>
</svg>
