<svg width="30" height="30" viewBox="0 0 30 30" fill="none" xmlns="http://www.w3.org/2000/svg">
<circle cx="15" cy="15" r="15" fill="#DDDAD1"/>
<mask id="mask0_265_997" style="mask-type:alpha" maskUnits="userSpaceOnUse" x="6" y="6" width="18" height="18">
<rect x="6" y="6" width="18" height="18" fill="#D9D9D9"/>
</mask>
<g mask="url(#mask0_265_997)">
<path d="M11.8688 15.75L15.5438 19.425C15.6938 19.575 15.7657 19.75 15.7595 19.95C15.7532 20.15 15.6751 20.325 15.5251 20.475C15.3751 20.6125 15.2001 20.6843 15.0001 20.6906C14.8001 20.6968 14.6251 20.625 14.4751 20.475L9.5251 15.525C9.4501 15.45 9.39697 15.3687 9.36572 15.2812C9.33447 15.1937 9.31885 15.1 9.31885 15C9.31885 14.9 9.33447 14.8062 9.36572 14.7187C9.39697 14.6312 9.4501 14.55 9.5251 14.475L14.4751 9.52498C14.6126 9.38748 14.7845 9.31873 14.9907 9.31873C15.197 9.31873 15.3751 9.38748 15.5251 9.52498C15.6751 9.67498 15.7501 9.8531 15.7501 10.0594C15.7501 10.2656 15.6751 10.4437 15.5251 10.5937L11.8688 14.25H20.2501C20.4626 14.25 20.6407 14.3219 20.7845 14.4656C20.9282 14.6094 21.0001 14.7875 21.0001 15C21.0001 15.2125 20.9282 15.3906 20.7845 15.5344C20.6407 15.6781 20.4626 15.75 20.2501 15.75H11.8688Z" fill="#464543"/>
</g>
</svg>
