<svg width="30" height="30" viewBox="0 0 30 30" fill="none" xmlns="http://www.w3.org/2000/svg">
<circle cx="15" cy="15" r="14.25" stroke="#807E7A" stroke-width="1.5"/>
<path d="M13.8107 8.54841C14.282 7.53851 15.718 7.53851 16.1893 8.54841L17.662 11.7038C17.7923 11.9831 18.0169 12.2077 18.2962 12.338L21.4516 13.8107C22.4615 14.282 22.4615 15.718 21.4516 16.1893L18.2962 17.662C18.0169 17.7923 17.7923 18.0169 17.662 18.2962L16.1893 21.4516C15.718 22.4615 14.282 22.4615 13.8107 21.4516L12.338 18.2962C12.2077 18.0169 11.9831 17.7923 11.7038 17.662L8.54841 16.1893C7.53851 15.718 7.53851 14.282 8.54841 13.8107L11.7038 12.338C11.9831 12.2077 12.2077 11.9831 12.338 11.7038L13.8107 8.54841Z" fill="#A66C94"/>
</svg>
