<svg width="30" height="30" viewBox="0 0 30 30" fill="none" xmlns="http://www.w3.org/2000/svg">
<mask id="mask0_265_978" style="mask-type:alpha" maskUnits="userSpaceOnUse" x="0" y="0" width="30" height="30">
<rect width="30" height="30" fill="#D9D9D9"/>
</mask>
<g mask="url(#mask0_265_978)">
<path d="M10.3647 20.2916L16.9063 18.3125C17.2396 18.2015 17.526 18.0261 17.7656 17.7866C18.0052 17.547 18.1805 17.2605 18.2916 16.9272L20.2709 10.3853C20.3334 10.1889 20.29 10.0148 20.1406 9.86313C19.9913 9.71125 19.8159 9.66656 19.6147 9.72906L13.0728 11.7084C12.7395 11.8195 12.453 11.9948 12.2134 12.2344C11.9739 12.474 11.7985 12.7604 11.6875 13.0938L9.70844 19.6353C9.64594 19.8318 9.68927 20.0059 9.83844 20.1578C9.98781 20.3095 10.1632 20.3541 10.3647 20.2916ZM14.995 16.4584C14.5885 16.4584 14.2447 16.3161 13.9634 16.0316C13.6822 15.747 13.5416 15.4015 13.5416 14.995C13.5416 14.5885 13.6839 14.2447 13.9684 13.9634C14.253 13.6822 14.5985 13.5416 15.005 13.5416C15.4115 13.5416 15.7553 13.6839 16.0366 13.9684C16.3178 14.253 16.4584 14.5985 16.4584 15.005C16.4584 15.4115 16.3161 15.7553 16.0316 16.0366C15.747 16.3178 15.4015 16.4584 14.995 16.4584ZM15.0056 27.5C13.28 27.5 11.6584 27.1719 10.1409 26.5156C8.62344 25.8594 7.29865 24.9653 6.16656 23.8334C5.03469 22.7014 4.14063 21.376 3.48438 19.8575C2.82812 18.339 2.5 16.7164 2.5 14.9897C2.5 13.263 2.82812 11.6403 3.48438 10.1216C4.14063 8.60302 5.03469 7.28125 6.16656 6.15625C7.29865 5.03125 8.62396 4.14063 10.1425 3.48438C11.661 2.82812 13.2836 2.5 15.0103 2.5C16.737 2.5 18.3597 2.82812 19.8784 3.48438C21.397 4.14063 22.7188 5.03125 23.8438 6.15625C24.9688 7.28125 25.8594 8.60417 26.5156 10.125C27.1719 11.6458 27.5 13.269 27.5 14.9944C27.5 16.72 27.1719 18.3416 26.5156 19.8591C25.8594 21.3766 24.9688 22.7 23.8438 23.8294C22.7188 24.9588 21.3958 25.8529 19.875 26.5119C18.3542 27.1706 16.731 27.5 15.0056 27.5ZM15.01 25.4166C17.8992 25.4166 20.3559 24.401 22.3803 22.37C24.4045 20.339 25.4166 17.879 25.4166 14.99C25.4166 12.1008 24.4045 9.64406 22.3803 7.61969C20.3559 5.59552 17.8992 4.58344 15.01 4.58344C12.121 4.58344 9.66104 5.59552 7.63 7.61969C5.59896 9.64406 4.58344 12.1008 4.58344 14.99C4.58344 17.879 5.59896 20.339 7.63 22.37C9.66104 24.401 12.121 25.4166 15.01 25.4166Z" fill="#855074"/>
</g>
</svg>
