<svg width="30" height="30" viewBox="0 0 30 30" fill="none" xmlns="http://www.w3.org/2000/svg">
<mask id="mask0_265_971" style="mask-type:alpha" maskUnits="userSpaceOnUse" x="0" y="0" width="30" height="30">
<rect width="30" height="30" fill="#D9D9D9"/>
</mask>
<g mask="url(#mask0_265_971)">
<path d="M26.4653 26.0209C26.3357 26.0209 26.2084 25.9966 26.0834 25.9478C25.9584 25.8993 25.8403 25.8195 25.7291 25.7084L22.5209 22.5H9.58344C9.01052 22.5 8.52 22.296 8.11188 21.8881C7.70396 21.48 7.5 20.9895 7.5 20.4166V18.3334H21.25C21.8229 18.3334 22.3133 18.1294 22.7213 17.7213C23.1294 17.3133 23.3334 16.8229 23.3334 16.25V7.5H25.4166C25.9895 7.5 26.48 7.70396 26.8881 8.11188C27.296 8.52 27.5 9.01052 27.5 9.58344V24.9688C27.5 25.2881 27.3924 25.5433 27.1772 25.7344C26.9618 25.9254 26.7245 26.0209 26.4653 26.0209ZM4.58344 16.2188L6.63531 14.1666H19.1666V4.58344H4.58344V16.2188ZM3.53469 19.7916C3.27552 19.7916 3.03823 19.6961 2.82281 19.5053C2.6076 19.3143 2.5 19.0591 2.5 18.7397V4.58344C2.5 4.01052 2.70396 3.52 3.11188 3.11188C3.52 2.70396 4.01052 2.5 4.58344 2.5H19.1666C19.7395 2.5 20.23 2.70396 20.6381 3.11188C21.046 3.52 21.25 4.01052 21.25 4.58344V14.1666C21.25 14.7395 21.046 15.23 20.6381 15.6381C20.23 16.046 19.7395 16.25 19.1666 16.25H7.5L4.27094 19.4791C4.15969 19.5903 4.04156 19.6702 3.91656 19.7188C3.79156 19.7673 3.66427 19.7916 3.53469 19.7916Z" fill="#855074"/>
</g>
</svg>
